<svg xmlns="http://www.w3.org/2000/svg" width="1080" height="1350" viewBox="0 0 1080 1350" role="img" aria-label="Match the visual to the content: readable code for examples, a table for comparisons, and a relevant photo for context."><title>Match the visual to the content: readable code for examples, a table for comparisons, and a relevant photo for context.</title><g font-family="Space Grotesk, sans-serif"><rect x="0" y="0" width="1080" height="1350" rx="0" fill="#FFFFFF" stroke="none"/><text x="64" y="96" font-size="28" font-weight="600" fill="#061B31" letter-spacing="0">skills</text><text x="882" y="96" font-size="26" font-weight="400" fill="#061B31" letter-spacing="0">04 / 05</text><text x="64" y="238" font-size="90" font-weight="600" fill="#061B31" letter-spacing="-2.25">Show what the</text><text x="64" y="338" font-size="90" font-weight="600" fill="#061B31" letter-spacing="-2.25">reader needs.</text><text x="64" y="492" font-size="34" font-weight="400" fill="#50617A" letter-spacing="0">The format should help explain the point.</text><rect x="64" y="606" width="952" height="150" rx="8" fill="#E8F3FF" stroke="none"/><text x="96" y="667" font-size="30" font-weight="400" fill="#50617A" letter-spacing="0">An example</text><text x="96" y="719" font-size="44" font-weight="500" fill="#061B31" letter-spacing="0">Readable code</text><rect x="64" y="786" width="952" height="150" rx="8" fill="#F5F7FA" stroke="none"/><text x="96" y="847" font-size="30" font-weight="400" fill="#50617A" letter-spacing="0">A comparison</text><text x="96" y="899" font-size="44" font-weight="500" fill="#061B31" letter-spacing="0">A clear table</text><rect x="64" y="966" width="952" height="150" rx="8" fill="#E8F3FF" stroke="none"/><text x="96" y="1027" font-size="30" font-weight="400" fill="#50617A" letter-spacing="0">Context</text><text x="96" y="1079" font-size="44" font-weight="500" fill="#061B31" letter-spacing="0">A relevant photo</text><rect x="64" y="1280" width="177.6" height="5" rx="0" fill="#061B31" stroke="none"/><rect x="257.6" y="1280" width="177.6" height="5" rx="0" fill="#061B31" stroke="none"/><rect x="451.2" y="1280" width="177.6" height="5" rx="0" fill="#061B31" stroke="none"/><rect x="644.8" y="1280" width="177.6" height="5" rx="0" fill="#061B31" stroke="none"/><rect x="838.4" y="1280" width="177.6" height="5" rx="0" fill="#DCE3EB" stroke="none"/></g></svg>